<?xml version="1.0" encoding="UTF-8"?>
<svg version="1.1" xmlns="http://www.w3.org/2000/svg" width="2000" height="2000">
<path d="M0 0 C660 0 1320 0 2000 0 C2000 660 2000 1320 2000 2000 C1340 2000 680 2000 0 2000 C0 1340 0 680 0 0 Z " fill="#020C45" transform="translate(0,0)"/>
<path d="M0 0 C89.76 0 179.52 0 272 0 C272 103.62 272 207.24 272 314 C316.55 314 361.1 314 407 314 C400.25 321.875 400.25 321.875 397.5130558 324.60999203 C396.88803189 325.23700699 396.26300798 325.86402195 395.61904395 326.51003736 C394.95171409 327.17445437 394.28438424 327.83887138 393.59683228 328.52342224 C392.87300051 329.24810843 392.14916875 329.97279462 391.40340269 330.719441 C388.9921672 333.13231559 386.57738984 335.54161307 384.16259766 337.95092773 C382.42752968 339.68571347 380.6926822 341.42071976 378.95803833 343.15592957 C375.23055563 346.88363954 371.50155211 350.60981785 367.77113724 354.33459282 C362.37767671 359.71990446 356.98700035 365.10799602 351.59698574 370.49675632 C342.85063072 379.24092614 334.10204781 387.9828634 325.35205078 396.72338867 C316.85543222 405.21081935 308.35987119 413.69930629 299.86572266 422.18920898 C299.07952034 422.97501722 299.07952034 422.97501722 298.27743514 423.77670037 C295.64784518 426.40498523 293.01827591 429.03329081 290.38871694 431.66160667 C268.5956855 453.44428205 246.79899574 475.22329331 225 497 C226.64686908 497.00358253 226.64686908 497.00358253 228.32700825 497.00723743 C255.0606095 497.06607214 281.79412091 497.14197961 308.52762318 497.23571491 C321.45582577 497.280651 334.38400095 497.32007078 347.31225586 497.34643555 C358.58253626 497.36943325 369.85272975 497.40285125 381.1229412 497.44870156 C387.08858917 497.4726097 393.0541512 497.49135433 399.01984596 497.49761391 C404.63983281 497.50367556 410.2595998 497.5237148 415.87950516 497.55427551 C417.93732996 497.56303836 419.99518351 497.56678197 422.0530262 497.56500816 C441.5095417 497.55353675 457.12219747 500.57686122 471.78125 514.6171875 C484.05833608 527.80208628 487.31875357 542.35260432 487.25726891 559.91722393 C487.26077498 561.19223706 487.26428105 562.4672502 487.26789337 563.78090009 C487.27730913 567.31029503 487.27436452 570.83958618 487.26933783 574.36898607 C487.26606172 578.21248971 487.27436161 582.05597161 487.28115618 585.89946824 C487.29145094 592.63269117 487.29430089 599.36588535 487.29224396 606.09911537 C487.28919263 616.11194558 487.29752088 626.124744 487.30799321 636.13756802 C487.32733293 655.06174113 487.33296142 673.9859034 487.33410732 692.91008522 C487.33502648 707.52451927 487.33914354 722.13894906 487.34550858 736.75338173 C487.34730367 740.96044756 487.3490833 745.16751341 487.35085833 749.37457925 C487.35152148 750.94342192 487.35152148 750.94342192 487.35219802 752.54395837 C487.36450605 781.96225647 487.37239918 811.38055309 487.37151146 840.79885387 C487.3714803 841.90794349 487.37144914 843.01703311 487.37141704 844.15973151 C487.37125083 849.78103231 487.37105275 855.40233312 487.37084763 861.02363392 C487.37078779 862.69824342 487.37078779 862.69824342 487.37072675 864.40668341 C487.37064587 866.66432894 487.37056228 868.92197447 487.37047596 871.17962001 C487.36925045 906.30506596 487.38426389 941.4304733 487.41162109 976.5559082 C487.44234568 1016.02115189 487.45955337 1055.4863702 487.45769465 1094.9516266 C487.45754539 1099.16026421 487.45744798 1103.36890183 487.45738602 1107.57753944 C487.45735105 1109.13194394 487.45735105 1109.13194394 487.45731538 1110.71775054 C487.45725385 1127.38988042 487.47002245 1144.06197675 487.48725055 1160.73409666 C487.50420852 1177.49145435 487.50617955 1194.248763 487.4930319 1211.00612452 C487.48564395 1220.95889506 487.48929612 1230.91151658 487.50891658 1240.86427132 C487.52092294 1247.51730075 487.51831821 1254.17022233 487.50397559 1260.82324682 C487.49621816 1264.61075627 487.49464444 1268.39797751 487.51089029 1272.18546655 C487.5978499 1293.9152951 487.27831177 1313.4065458 471.72265625 1330.4140625 C460.59918622 1340.65471745 447.38353483 1346.48439069 432.32419968 1346.38311005 C431.27936002 1346.38806956 430.23452036 1346.39302908 429.15801889 1346.39813888 C425.65769167 1346.41108986 422.15774623 1346.40271159 418.65740967 1346.39440918 C416.1221522 1346.3992983 413.58689696 1346.4054882 411.05164552 1346.41286707 C405.53980543 1346.42585824 400.02808093 1346.42951748 394.51622963 1346.42490768 C386.31968771 1346.4180704 378.12322877 1346.42833983 369.92669838 1346.44186524 C354.43507464 1346.46677152 338.94348539 1346.47129442 323.45184484 1346.46939927 C311.48801559 1346.46802601 299.5241983 1346.47184478 287.5603714 1346.47932434 C285.8413064 1346.48037468 284.12224139 1346.48142229 282.40317638 1346.4824672 C281.12316058 1346.48324622 281.12316058 1346.48324622 279.81728588 1346.48404097 C278.96237619 1346.48456112 278.10746651 1346.48508126 277.22665048 1346.48561716 C275.94213165 1346.48640315 275.94213165 1346.48640315 274.63166295 1346.48720502 C250.54652441 1346.5017881 226.46139026 1346.51007092 202.37624741 1346.50545502 C201.46831033 1346.50528306 200.56037325 1346.50511111 199.62492293 1346.50493394 C195.02318607 1346.50404506 190.42144922 1346.50310025 185.81971237 1346.50213593 C184.9058011 1346.5019449 183.99188983 1346.50175387 183.05028428 1346.50155704 C181.20213338 1346.50116995 179.35398248 1346.50077962 177.50583159 1346.50038607 C148.75141344 1346.49441663 119.99707578 1346.50985192 91.24267578 1346.54199219 C58.93256893 1346.57807627 26.62251311 1346.59740082 -5.68761516 1346.59245348 C-9.13344621 1346.59198351 -12.57927727 1346.59157325 -16.02510834 1346.59120178 C-16.87355088 1346.5910994 -17.72199342 1346.59099701 -18.59614635 1346.59089152 C-31.3991556 1346.58969714 -44.20210967 1346.60165811 -57.00510406 1346.62034607 C-71.56828037 1346.64159308 -86.13134099 1346.64542275 -100.69452247 1346.62604648 C-108.84144491 1346.61572761 -116.98808512 1346.61917146 -125.13498199 1346.64257733 C-131.2223354 1346.65851361 -137.3093505 1346.64823769 -143.39670286 1346.62785631 C-145.85627261 1346.62366414 -148.31587438 1346.62789113 -150.77541032 1346.64145225 C-168.442487 1346.73221836 -180.70892666 1345.24667215 -195 1334 C-195.82371094 1333.39414063 -196.64742187 1332.78828125 -197.49609375 1332.1640625 C-205.30305684 1325.41670283 -210.20081962 1315.77537605 -213 1306 C-213.34024315 1305.0497669 -213.68048629 1304.0995338 -214.03103983 1303.12050575 C-215.57437649 1297.66152667 -215.27681659 1292.06712463 -215.25726891 1286.4390955 C-215.26077498 1285.16615512 -215.26428105 1283.89321474 -215.26789337 1282.58170041 C-215.27734518 1279.04412583 -215.27435274 1275.5066543 -215.26933783 1271.96907466 C-215.26607102 1268.12190401 -215.27435392 1264.27475537 -215.28115618 1260.42759174 C-215.29146607 1253.68324859 -215.29429826 1246.93893415 -215.29224396 1240.19458389 C-215.28919648 1230.16511651 -215.29751243 1220.13568096 -215.30799321 1210.10621976 C-215.32734817 1191.15038703 -215.33296202 1172.19456509 -215.33410732 1153.23872364 C-215.3350261 1138.59848272 -215.33914114 1123.95824605 -215.34550858 1109.31800652 C-215.34730365 1105.10511222 -215.34908328 1100.89221792 -215.35085833 1096.67932361 C-215.35130043 1095.63199967 -215.35174252 1094.58467574 -215.35219802 1093.50561471 C-215.36450911 1064.03981055 -215.37239889 1034.57400787 -215.37151146 1005.10820103 C-215.3714803 1003.99695572 -215.37144914 1002.88571041 -215.37141704 1001.740791 C-215.37125083 996.10844913 -215.37105274 990.47610726 -215.37084763 984.84376539 C-215.37080774 983.72515029 -215.37076785 982.6065352 -215.37072675 981.45402268 C-215.37064587 979.19190799 -215.37056228 976.92979331 -215.37047596 974.66767862 C-215.36925078 939.4822933 -215.3842565 904.29694655 -215.41162109 869.11157227 C-215.44234881 829.58554592 -215.45955311 790.05954491 -215.45769465 750.53350586 C-215.45754539 746.31778236 -215.45744797 742.10205887 -215.45738602 737.88633537 C-215.45736271 736.84831048 -215.4573394 735.81028559 -215.45731538 734.7408054 C-215.45725386 718.041743 -215.47002168 701.34271409 -215.48725055 684.64366165 C-215.50421271 667.85567495 -215.50617634 651.06773719 -215.4930319 634.27974666 C-215.48564617 624.30942755 -215.4892894 614.33925723 -215.50891658 604.36895392 C-215.52092898 597.70284443 -215.5183115 591.03684253 -215.50397559 584.37073794 C-215.49622312 580.57652522 -215.49463001 576.78260009 -215.51089029 572.9884078 C-215.60371507 549.7993914 -215.05045515 531.01865065 -198.40625 513.3203125 C-187.49509817 502.79884466 -174.25512041 497.85965267 -159.23649597 497.84178162 C-158.35426009 497.83684364 -157.47202421 497.83190566 -156.56305391 497.82681805 C-153.60738612 497.81146218 -150.65174003 497.80308758 -147.69604492 497.79467773 C-145.57710581 497.78509771 -143.4581686 497.77508756 -141.3392334 497.76467896 C-135.58559294 497.73763731 -129.83194428 497.7166237 -124.07827544 497.69667697 C-118.06578435 497.67481289 -112.0533185 497.64742625 -106.04084778 497.62062073 C-94.65479462 497.57069958 -83.26872744 497.52575858 -71.88264686 497.48259836 C-58.92024573 497.43322107 -45.95786993 497.37830476 -32.99549329 497.32291877 C-6.33035249 497.20910759 20.3348126 497.10226664 47 497 C46.61489352 496.61527324 46.22978704 496.23054649 45.83301067 495.83416134 C23.03342519 473.05693006 0.23643273 450.2771072 -22.55717319 427.49389214 C-25.29102616 424.76128995 -28.02490089 422.02870954 -30.75878906 419.29614258 C-31.5752269 418.48009821 -31.5752269 418.48009821 -32.40815842 417.6475681 C-41.23357542 408.82650824 -50.06075612 400.00721533 -58.88858426 391.18856854 C-67.93956849 382.14691961 -76.98866785 373.1033875 -86.03600216 364.05808634 C-91.62350993 358.47195405 -97.21250135 352.88731458 -102.80337024 347.30454623 C-107.0826382 343.03116467 -111.35928719 338.75517209 -115.63493729 334.47817039 C-117.39497215 332.71841212 -119.15587314 330.95951965 -120.91767502 329.20153046 C-123.31093791 326.81319581 -125.7011505 324.42185101 -128.09057617 322.02967834 C-129.15280506 320.97181872 -129.15280506 320.97181872 -130.23649311 319.8925882 C-131.1874601 318.93863463 -131.1874601 318.93863463 -132.15763855 317.96540928 C-132.71051135 317.4129162 -133.26338415 316.86042312 -133.83301067 316.29118782 C-135 315 -135 315 -135 314 C-90.45 314 -45.9 314 0 314 C0 210.38 0 106.76 0 0 Z " fill="#020C45" transform="translate(864,559)"/>
<path d="M0 0 C89.76 0 179.52 0 272 0 C272 103.62 272 207.24 272 314 C316.55 314 361.1 314 407 314 C400.25 321.875 400.25 321.875 397.5130558 324.60999203 C396.88803189 325.23700699 396.26300798 325.86402195 395.61904395 326.51003736 C394.95171409 327.17445437 394.28438424 327.83887138 393.59683228 328.52342224 C392.87300051 329.24810843 392.14916875 329.97279462 391.40340269 330.719441 C388.9921672 333.13231559 386.57738984 335.54161307 384.16259766 337.95092773 C382.42752968 339.68571347 380.6926822 341.42071976 378.95803833 343.15592957 C375.23055563 346.88363954 371.50155211 350.60981785 367.77113724 354.33459282 C362.37767671 359.71990446 356.98700035 365.10799602 351.59698574 370.49675632 C342.85063072 379.24092614 334.10204781 387.9828634 325.35205078 396.72338867 C316.85543222 405.21081935 308.35987119 413.69930629 299.86572266 422.18920898 C299.07952034 422.97501722 299.07952034 422.97501722 298.27743514 423.77670037 C295.64784518 426.40498523 293.01827591 429.03329081 290.38871694 431.66160667 C268.5956855 453.44428205 246.79899574 475.22329331 225 497 C226.64686908 497.00358253 226.64686908 497.00358253 228.32700825 497.00723743 C255.0606095 497.06607214 281.79412091 497.14197961 308.52762318 497.23571491 C321.45582577 497.280651 334.38400095 497.32007078 347.31225586 497.34643555 C358.58253626 497.36943325 369.85272975 497.40285125 381.1229412 497.44870156 C387.08858917 497.4726097 393.0541512 497.49135433 399.01984596 497.49761391 C404.63983281 497.50367556 410.2595998 497.5237148 415.87950516 497.55427551 C417.93732996 497.56303836 419.99518351 497.56678197 422.0530262 497.56500816 C441.5095417 497.55353675 457.12219747 500.57686122 471.78125 514.6171875 C484.05833608 527.80208628 487.31875357 542.35260432 487.25726891 559.91722393 C487.26077498 561.19223706 487.26428105 562.4672502 487.26789337 563.78090009 C487.27730913 567.31029503 487.27436452 570.83958618 487.26933783 574.36898607 C487.26606172 578.21248971 487.27436161 582.05597161 487.28115618 585.89946824 C487.29145094 592.63269117 487.29430089 599.36588535 487.29224396 606.09911537 C487.28919263 616.11194558 487.29752088 626.124744 487.30799321 636.13756802 C487.32733293 655.06174113 487.33296142 673.9859034 487.33410732 692.91008522 C487.33502648 707.52451927 487.33914354 722.13894906 487.34550858 736.75338173 C487.34730367 740.96044756 487.3490833 745.16751341 487.35085833 749.37457925 C487.35152148 750.94342192 487.35152148 750.94342192 487.35219802 752.54395837 C487.36450605 781.96225647 487.37239918 811.38055309 487.37151146 840.79885387 C487.3714803 841.90794349 487.37144914 843.01703311 487.37141704 844.15973151 C487.37125083 849.78103231 487.37105275 855.40233312 487.37084763 861.02363392 C487.37078779 862.69824342 487.37078779 862.69824342 487.37072675 864.40668341 C487.37064587 866.66432894 487.37056228 868.92197447 487.37047596 871.17962001 C487.36925045 906.30506596 487.38426389 941.4304733 487.41162109 976.5559082 C487.44234568 1016.02115189 487.45955337 1055.4863702 487.45769465 1094.9516266 C487.45754539 1099.16026421 487.45744798 1103.36890183 487.45738602 1107.57753944 C487.45735105 1109.13194394 487.45735105 1109.13194394 487.45731538 1110.71775054 C487.45725385 1127.38988042 487.47002245 1144.06197675 487.48725055 1160.73409666 C487.50420852 1177.49145435 487.50617955 1194.248763 487.4930319 1211.00612452 C487.48564395 1220.95889506 487.48929612 1230.91151658 487.50891658 1240.86427132 C487.52092294 1247.51730075 487.51831821 1254.17022233 487.50397559 1260.82324682 C487.49621816 1264.61075627 487.49464444 1268.39797751 487.51089029 1272.18546655 C487.5978499 1293.9152951 487.27831177 1313.4065458 471.72265625 1330.4140625 C460.59918622 1340.65471745 447.38353483 1346.48439069 432.32419968 1346.38311005 C431.27936002 1346.38806956 430.23452036 1346.39302908 429.15801889 1346.39813888 C425.65769167 1346.41108986 422.15774623 1346.40271159 418.65740967 1346.39440918 C416.1221522 1346.3992983 413.58689696 1346.4054882 411.05164552 1346.41286707 C405.53980543 1346.42585824 400.02808093 1346.42951748 394.51622963 1346.42490768 C386.31968771 1346.4180704 378.12322877 1346.42833983 369.92669838 1346.44186524 C354.43507464 1346.46677152 338.94348539 1346.47129442 323.45184484 1346.46939927 C311.48801559 1346.46802601 299.5241983 1346.47184478 287.5603714 1346.47932434 C285.8413064 1346.48037468 284.12224139 1346.48142229 282.40317638 1346.4824672 C281.12316058 1346.48324622 281.12316058 1346.48324622 279.81728588 1346.48404097 C278.96237619 1346.48456112 278.10746651 1346.48508126 277.22665048 1346.48561716 C275.94213165 1346.48640315 275.94213165 1346.48640315 274.63166295 1346.48720502 C250.54652441 1346.5017881 226.46139026 1346.51007092 202.37624741 1346.50545502 C201.46831033 1346.50528306 200.56037325 1346.50511111 199.62492293 1346.50493394 C195.02318607 1346.50404506 190.42144922 1346.50310025 185.81971237 1346.50213593 C184.9058011 1346.5019449 183.99188983 1346.50175387 183.05028428 1346.50155704 C181.20213338 1346.50116995 179.35398248 1346.50077962 177.50583159 1346.50038607 C148.75141344 1346.49441663 119.99707578 1346.50985192 91.24267578 1346.54199219 C58.93256893 1346.57807627 26.62251311 1346.59740082 -5.68761516 1346.59245348 C-9.13344621 1346.59198351 -12.57927727 1346.59157325 -16.02510834 1346.59120178 C-16.87355088 1346.5910994 -17.72199342 1346.59099701 -18.59614635 1346.59089152 C-31.3991556 1346.58969714 -44.20210967 1346.60165811 -57.00510406 1346.62034607 C-71.56828037 1346.64159308 -86.13134099 1346.64542275 -100.69452247 1346.62604648 C-108.84144491 1346.61572761 -116.98808512 1346.61917146 -125.13498199 1346.64257733 C-131.2223354 1346.65851361 -137.3093505 1346.64823769 -143.39670286 1346.62785631 C-145.85627261 1346.62366414 -148.31587438 1346.62789113 -150.77541032 1346.64145225 C-168.442487 1346.73221836 -180.70892666 1345.24667215 -195 1334 C-195.82371094 1333.39414063 -196.64742187 1332.78828125 -197.49609375 1332.1640625 C-205.30305684 1325.41670283 -210.20081962 1315.77537605 -213 1306 C-213.34024315 1305.0497669 -213.68048629 1304.0995338 -214.03103983 1303.12050575 C-215.57437649 1297.66152667 -215.27681659 1292.06712463 -215.25726891 1286.4390955 C-215.26077498 1285.16615512 -215.26428105 1283.89321474 -215.26789337 1282.58170041 C-215.27734518 1279.04412583 -215.27435274 1275.5066543 -215.26933783 1271.96907466 C-215.26607102 1268.12190401 -215.27435392 1264.27475537 -215.28115618 1260.42759174 C-215.29146607 1253.68324859 -215.29429826 1246.93893415 -215.29224396 1240.19458389 C-215.28919648 1230.16511651 -215.29751243 1220.13568096 -215.30799321 1210.10621976 C-215.32734817 1191.15038703 -215.33296202 1172.19456509 -215.33410732 1153.23872364 C-215.3350261 1138.59848272 -215.33914114 1123.95824605 -215.34550858 1109.31800652 C-215.34730365 1105.10511222 -215.34908328 1100.89221792 -215.35085833 1096.67932361 C-215.35130043 1095.63199967 -215.35174252 1094.58467574 -215.35219802 1093.50561471 C-215.36450911 1064.03981055 -215.37239889 1034.57400787 -215.37151146 1005.10820103 C-215.3714803 1003.99695572 -215.37144914 1002.88571041 -215.37141704 1001.740791 C-215.37125083 996.10844913 -215.37105274 990.47610726 -215.37084763 984.84376539 C-215.37080774 983.72515029 -215.37076785 982.6065352 -215.37072675 981.45402268 C-215.37064587 979.19190799 -215.37056228 976.92979331 -215.37047596 974.66767862 C-215.36925078 939.4822933 -215.3842565 904.29694655 -215.41162109 869.11157227 C-215.44234881 829.58554592 -215.45955311 790.05954491 -215.45769465 750.53350586 C-215.45754539 746.31778236 -215.45744797 742.10205887 -215.45738602 737.88633537 C-215.45736271 736.84831048 -215.4573394 735.81028559 -215.45731538 734.7408054 C-215.45725386 718.041743 -215.47002168 701.34271409 -215.48725055 684.64366165 C-215.50421271 667.85567495 -215.50617634 651.06773719 -215.4930319 634.27974666 C-215.48564617 624.30942755 -215.4892894 614.33925723 -215.50891658 604.36895392 C-215.52092898 597.70284443 -215.5183115 591.03684253 -215.50397559 584.37073794 C-215.49622312 580.57652522 -215.49463001 576.78260009 -215.51089029 572.9884078 C-215.60371507 549.7993914 -215.05045515 531.01865065 -198.40625 513.3203125 C-187.49509817 502.79884466 -174.25512041 497.85965267 -159.23649597 497.84178162 C-158.35426009 497.83684364 -157.47202421 497.83190566 -156.56305391 497.82681805 C-153.60738612 497.81146218 -150.65174003 497.80308758 -147.69604492 497.79467773 C-145.57710581 497.78509771 -143.4581686 497.77508756 -141.3392334 497.76467896 C-135.58559294 497.73763731 -129.83194428 497.7166237 -124.07827544 497.69667697 C-118.06578435 497.67481289 -112.0533185 497.64742625 -106.04084778 497.62062073 C-94.65479462 497.57069958 -83.26872744 497.52575858 -71.88264686 497.48259836 C-58.92024573 497.43322107 -45.95786993 497.37830476 -32.99549329 497.32291877 C-6.33035249 497.20910759 20.3348126 497.10226664 47 497 C46.61489352 496.61527324 46.22978704 496.23054649 45.83301067 495.83416134 C23.03342519 473.05693006 0.23643273 450.2771072 -22.55717319 427.49389214 C-25.29102616 424.76128995 -28.02490089 422.02870954 -30.75878906 419.29614258 C-31.5752269 418.48009821 -31.5752269 418.48009821 -32.40815842 417.6475681 C-41.23357542 408.82650824 -50.06075612 400.00721533 -58.88858426 391.18856854 C-67.93956849 382.14691961 -76.98866785 373.1033875 -86.03600216 364.05808634 C-91.62350993 358.47195405 -97.21250135 352.88731458 -102.80337024 347.30454623 C-107.0826382 343.03116467 -111.35928719 338.75517209 -115.63493729 334.47817039 C-117.39497215 332.71841212 -119.15587314 330.95951965 -120.91767502 329.20153046 C-123.31093791 326.81319581 -125.7011505 324.42185101 -128.09057617 322.02967834 C-129.15280506 320.97181872 -129.15280506 320.97181872 -130.23649311 319.8925882 C-131.1874601 318.93863463 -131.1874601 318.93863463 -132.15763855 317.96540928 C-132.71051135 317.4129162 -133.26338415 316.86042312 -133.83301067 316.29118782 C-135 315 -135 315 -135 314 C-90.45 314 -45.9 314 0 314 C0 210.38 0 106.76 0 0 Z M-175.3125 540.4375 C-176.01826172 541.27087891 -176.01826172 541.27087891 -176.73828125 542.12109375 C-179.40392019 546.09066752 -180.25002591 549.66002822 -180.25299966 554.401573 C-180.25851915 555.48152232 -180.26403864 556.56147163 -180.26972538 557.67414668 C-180.26561475 558.85717088 -180.26150411 560.04019507 -180.25726891 561.25906849 C-180.26077498 562.52365608 -180.26428105 563.78824367 -180.26789337 565.0911521 C-180.27736885 568.61457001 -180.2743451 572.13788477 -180.26933783 575.66130781 C-180.26607714 579.4895374 -180.27434877 583.31774466 -180.28115618 587.14596719 C-180.29147582 593.85991673 -180.29429658 600.57383742 -180.29224396 607.28779411 C-180.28919907 617.27167082 -180.29750656 627.2555155 -180.30799321 637.23938599 C-180.32735617 656.1064553 -180.33296228 674.97351376 -180.33410732 693.84059183 C-180.33502565 708.40800882 -180.33913837 722.97542154 -180.34550858 737.54283714 C-180.3473036 741.73279052 -180.34908323 745.92274391 -180.35085833 750.1126973 C-180.35130043 751.15426792 -180.35174252 752.19583853 -180.35219802 753.26897189 C-180.36451 782.57473966 -180.37239878 811.88050596 -180.37151146 841.18627644 C-180.3714803 842.29164122 -180.37144914 843.39700601 -180.37141704 844.5358667 C-180.37125082 850.13859118 -180.37105274 855.74131566 -180.37084763 861.34404013 C-180.37080774 862.45680479 -180.37076785 863.56956944 -180.37072675 864.71605423 C-180.37064587 866.96633628 -180.37056228 869.21661833 -180.37047596 871.46690038 C-180.36925023 906.4840537 -180.38426631 941.5011683 -180.41162109 976.51831055 C-180.44232561 1015.83988666 -180.45955458 1055.16143734 -180.45769465 1094.48302621 C-180.45754538 1098.67392266 -180.45744797 1102.86481911 -180.45738602 1107.05571556 C-180.45736271 1108.08765708 -180.4573394 1109.11959861 -180.45731538 1110.18281109 C-180.45725377 1126.80731706 -180.47003898 1143.4317895 -180.48725055 1160.0562855 C-180.50418371 1176.7570018 -180.50619906 1193.45766889 -180.4930319 1210.15838901 C-180.48562732 1220.08594447 -180.48934561 1230.01335068 -180.50891658 1239.94089041 C-180.52088035 1246.56835498 -180.51836582 1253.19571098 -180.50397559 1259.82317048 C-180.49618199 1263.60190827 -180.49474815 1267.3803564 -180.51089029 1271.15907422 C-180.52811784 1275.22741446 -180.51449624 1279.29506603 -180.49777794 1283.36340809 C-180.5077143 1284.53940879 -180.51765066 1285.71540948 -180.52788812 1286.92704657 C-180.46109828 1294.57113717 -179.58516538 1300.435128 -173.9296875 1306.05859375 C-173.25164063 1306.51363281 -172.57359375 1306.96867187 -171.875 1307.4375 C-171.19179688 1307.91058594 -170.50859375 1308.38367187 -169.8046875 1308.87109375 C-166.93182111 1310.66818982 -165.25902591 1311.12548748 -161.8943547 1311.12880117 C-161.02755934 1311.13207336 -160.16076399 1311.13534555 -159.2677021 1311.13871691 C-158.30782261 1311.13723328 -157.34794312 1311.13574966 -156.35897636 1311.13422108 C-154.83197599 1311.13774942 -154.83197599 1311.13774942 -153.27412713 1311.14134905 C-149.82311164 1311.14806774 -146.37213356 1311.14757996 -142.92111206 1311.14717102 C-140.43783228 1311.15046786 -137.95455304 1311.15419305 -135.4712745 1311.1583125 C-129.3365082 1311.16730508 -123.2017532 1311.1715634 -117.0669812 1311.17383147 C-109.72240188 1311.17678914 -102.37783218 1311.185484 -95.03325789 1311.19424575 C-77.27835989 1311.21510939 -59.5234602 1311.22556308 -41.76855279 1311.23437535 C-33.37218028 1311.23857925 -24.97580848 1311.2438016 -16.57943657 1311.24905988 C12.15173284 1311.26695201 40.88290246 1311.28194874 69.61407661 1311.28938007 C71.41850777 1311.28985483 73.22293893 1311.29033072 75.02737009 1311.29080774 C75.92222371 1311.29104411 76.81707732 1311.29128049 77.73904772 1311.29152403 C82.27297192 1311.29272525 86.80689612 1311.29394069 91.34082031 1311.29516602 C92.24059861 1311.29540617 93.14037691 1311.29564632 94.06742122 1311.29589374 C123.24474743 1311.30378784 152.42203301 1311.32722095 181.59934148 1311.35972196 C212.4334827 1311.39400595 243.26760014 1311.41372991 274.10176075 1311.41702431 C277.4855435 1311.41744187 280.86932624 1311.41792143 284.25310898 1311.41844749 C285.08631633 1311.41857069 285.91952369 1311.41869388 286.77797975 1311.4188208 C300.1975226 1311.42115467 313.61701834 1311.43682511 327.03654439 1311.45728934 C340.52151086 1311.47752735 354.00642063 1311.48303426 367.49139948 1311.47351871 C375.50599959 1311.46829576 383.52041117 1311.47421851 391.53498422 1311.49605338 C397.51522358 1311.51111664 403.49524994 1311.50534507 409.47549997 1311.49138286 C411.89818074 1311.48899178 414.32087948 1311.49340733 416.74353267 1311.50521151 C420.03065781 1311.52023927 423.31682864 1311.51072017 426.60392952 1311.49498463 C427.54976202 1311.50520683 428.49559451 1311.51542904 429.4700886 1311.52596101 C436.06475586 1311.45681927 441.56924084 1310.17564439 446.52530832 1305.58811517 C450.61125682 1300.96958998 452.24917553 1296.69588653 452.25299966 1290.598427 C452.25851915 1289.51847768 452.26403864 1288.43852837 452.26972538 1287.32585332 C452.26561475 1286.14282912 452.26150411 1284.95980493 452.25726891 1283.74093151 C452.26252802 1281.84405012 452.26252802 1281.84405012 452.26789337 1279.9088479 C452.27736885 1276.38542999 452.2743451 1272.86211523 452.26933783 1269.33869219 C452.26607714 1265.5104626 452.27434877 1261.68225534 452.28115618 1257.85403281 C452.29147582 1251.14008327 452.29429658 1244.42616258 452.29224396 1237.71220589 C452.28919907 1227.72832918 452.29750656 1217.7444845 452.30799321 1207.76061401 C452.32735617 1188.8935447 452.33296228 1170.02648624 452.33410732 1151.15940817 C452.33502565 1136.59199118 452.33913837 1122.02457846 452.34550858 1107.45716286 C452.3473036 1103.26720948 452.34908323 1099.07725609 452.35085833 1094.8873027 C452.35130043 1093.84573208 452.35174252 1092.80416147 452.35219802 1091.73102811 C452.36451 1062.42526034 452.37239878 1033.11949404 452.37151146 1003.81372356 C452.3714803 1002.70835878 452.37144914 1001.60299399 452.37141704 1000.4641333 C452.37125082 994.86140882 452.37105274 989.25868434 452.37084763 983.65595987 C452.37080774 982.54319521 452.37076785 981.43043056 452.37072675 980.28394577 C452.37064587 978.03366372 452.37056228 975.78338167 452.37047596 973.53309962 C452.36925023 938.5159463 452.38426631 903.4988317 452.41162109 868.48168945 C452.44232561 829.16011334 452.45955458 789.83856266 452.45769465 750.51697379 C452.45754538 746.32607734 452.45744797 742.13518089 452.45738602 737.94428444 C452.45736271 736.91234292 452.4573394 735.88040139 452.45731538 734.81718891 C452.45725377 718.19268294 452.47003898 701.5682105 452.48725055 684.9437145 C452.50418371 668.2429982 452.50619906 651.54233111 452.4930319 634.84161099 C452.48562732 624.91405553 452.48934561 614.98664932 452.50891658 605.05910959 C452.52088035 598.43164502 452.51836582 591.80428902 452.50397559 585.17682952 C452.49618199 581.39809173 452.49474815 577.6196436 452.51089029 573.84092578 C452.52811784 569.77258554 452.51449624 565.70493397 452.49777794 561.63659191 C452.5077143 560.46059121 452.51765066 559.28459052 452.52788812 558.07295343 C452.46086006 550.40159845 451.44397603 544.91223593 446.21875 538.9765625 C445.6515625 538.53054688 445.084375 538.08453125 444.5 537.625 C443.9328125 537.16351562 443.365625 536.70203125 442.78125 536.2265625 C439.46674721 533.94420751 436.80575643 532.76096149 432.76154232 532.61144543 C431.91766427 532.57601169 431.07378622 532.54057795 430.20433611 532.50407046 C429.28192945 532.47510804 428.3595228 532.44614561 427.40916443 532.41630554 C425.93280686 532.35976648 425.93280686 532.35976648 424.42662388 532.30208522 C421.11729709 532.17906705 417.80767711 532.07083267 414.49780273 531.96362305 C412.12678616 531.88069975 409.75577389 531.79765332 407.38476562 531.7144928 C385.56759987 530.97460011 363.7437044 530.54149092 341.9171896 530.19331646 C338.98327021 530.14566052 336.04936847 530.09704179 333.11547852 530.04760742 C332.02194366 530.02923718 332.02194366 530.02923718 330.90631718 530.01049582 C319.93503458 529.82109933 308.97614237 529.47481599 298.01196289 529.04272461 C281.1123668 528.38531066 264.22170878 527.96818943 247.30859375 527.94921875 C246.28967809 527.94733198 246.28967809 527.94733198 245.25017828 527.94540709 C213.69129261 527.91867761 184.72031724 528.21790861 161.06568909 551.4811554 C151.63986638 561.27962979 143.67209539 572.16119539 137 584 C133.25210426 582.53934778 132.0029206 580.79651479 130.06521606 577.32746887 C118.88978361 558.50303092 102.9360599 538.40608378 81.00806236 532.14582729 C62.72250459 528.0149721 43.6577679 528.06489672 24.9921875 528.07421875 C24.31429062 528.07418187 23.63639375 528.07414499 22.93795455 528.07410699 C5.99324226 528.08608175 -10.93170179 528.53622952 -27.86359975 529.16410996 C-38.83486452 529.5706772 -49.80166407 529.84685264 -60.77929688 530.0065918 C-61.5062275 530.01720364 -62.23315813 530.02781547 -62.98211695 530.03874888 C-65.90566449 530.08098479 -68.82922138 530.12246408 -71.75279398 530.16292922 C-94.04159408 530.47294329 -116.33235014 530.89096626 -138.61066246 531.65119362 C-140.92641918 531.72835656 -143.24239086 531.79935211 -145.55853844 531.86372375 C-148.7183082 531.95364795 -151.87624784 532.06782327 -155.03494263 532.18925476 C-155.949975 532.21102726 -156.86500736 532.23279976 -157.80776799 532.25523204 C-165.05994805 532.58058855 -170.55332197 534.63264341 -175.3125 540.4375 Z " fill="#FE3031" transform="translate(864,559)"/>
<path d="M0 0 C1.29962062 -0.03726549 1.29962062 -0.03726549 2.62549621 -0.07528383 C5.5293372 -0.15654377 8.43330645 -0.23064814 11.33735657 -0.30403137 C12.35530052 -0.3310935 13.37324448 -0.35815563 14.42203522 -0.38603783 C34.58475555 -0.92060811 54.75019283 -1.24384427 74.91826153 -1.49470043 C87.74509331 -1.65827074 100.56443522 -1.88499863 113.38667297 -2.27082825 C124.59575319 -2.60800718 135.79950718 -2.82059225 147.0135501 -2.89063436 C152.93548162 -2.93165839 158.84263893 -3.02910722 164.75984764 -3.27634239 C186.32938743 -4.14265417 204.8469028 -4.84400908 221.57324558 10.37302202 C229.19897885 17.75139103 236.14227498 25.77479638 242.38935852 34.3490448 C242.38935852 34.6790448 242.38935852 35.0090448 242.38935852 35.3490448 C241.11768546 35.35051136 239.8460124 35.35197792 238.53580379 35.35348892 C208.34567095 35.38919452 178.15565403 35.44544086 147.9656128 35.52696575 C144.24935851 35.53698315 140.53310378 35.54682729 136.81684875 35.55656433 C135.70709432 35.55947639 135.70709432 35.55947639 134.5749206 35.56244728 C122.59718052 35.59346442 110.61945959 35.61044713 98.64168691 35.62223902 C86.35045357 35.63465207 74.05932075 35.66215692 61.76815087 35.70365787 C54.18442724 35.72878894 46.60087031 35.74216237 39.01710445 35.74047437 C33.20085971 35.74044109 27.3848367 35.76141001 21.56867027 35.79021263 C19.18342792 35.79873709 16.79815004 35.80044439 14.41289902 35.79484749 C11.15695302 35.78822472 7.90202291 35.80608833 4.6461792 35.83006287 C3.70161391 35.82230245 2.75704862 35.81454203 1.78386015 35.80654645 C-4.9354805 35.89417296 -9.20698734 37.30367004 -14.31767273 41.87638855 C-18.12306252 46.73061369 -19.85977077 50.5794298 -19.86364114 56.7506178 C-19.86916063 57.83056712 -19.87468012 58.91051643 -19.88036686 60.02319148 C-19.87625622 61.20621568 -19.87214559 62.38923987 -19.86791039 63.60811329 C-19.87141646 64.87270088 -19.87492253 66.13728847 -19.87853485 67.4401969 C-19.88801033 70.96361481 -19.88498658 74.48692957 -19.87997931 78.01035261 C-19.87671862 81.8385822 -19.88499025 85.66678946 -19.89179766 89.49501199 C-19.9021173 96.20896153 -19.90493806 102.92288222 -19.90288544 109.63683891 C-19.89984055 119.62071562 -19.90814803 129.6045603 -19.91863469 139.58843079 C-19.93799765 158.4555001 -19.94360376 177.32255856 -19.9447488 196.18963663 C-19.94566713 210.75705362 -19.94977985 225.32446634 -19.95615005 239.89188194 C-19.95794508 244.08183532 -19.95972471 248.27178871 -19.96149981 252.4617421 C-19.96194191 253.50331272 -19.962384 254.54488333 -19.9628395 255.61801669 C-19.97515148 284.92378446 -19.98304026 314.22955076 -19.98215294 343.53532124 C-19.9821062 345.19336842 -19.9821062 345.19336842 -19.98205852 346.8849115 C-19.9818923 352.48763598 -19.98169422 358.09036045 -19.98148911 363.69308493 C-19.98144922 364.80584959 -19.98140933 365.91861424 -19.98136823 367.06509903 C-19.98128735 369.31538108 -19.98120376 371.56566313 -19.98111744 373.81594518 C-19.97989171 408.8330985 -19.99490779 443.8502131 -20.02226257 478.86735535 C-20.05296709 518.18893146 -20.07019606 557.51048214 -20.06833613 596.83207101 C-20.06818686 601.02296746 -20.06808945 605.21386391 -20.0680275 609.40476036 C-20.06799253 610.95267265 -20.06799253 610.95267265 -20.06795686 612.53185589 C-20.06789525 629.15636186 -20.08068046 645.7808343 -20.09789203 662.4053303 C-20.11482519 679.1060466 -20.11684054 695.80671369 -20.10367338 712.50743381 C-20.0962688 722.43498927 -20.09998709 732.36239548 -20.11955806 742.28993521 C-20.13152183 748.91739978 -20.1290073 755.54475578 -20.11461707 762.17221528 C-20.10682347 765.95095307 -20.10538963 769.7294012 -20.12153177 773.50811902 C-20.13875932 777.57645926 -20.12513772 781.64411083 -20.10841942 785.71245289 C-20.11835578 786.88845359 -20.12829214 788.06445428 -20.1385296 789.27609137 C-20.08234821 795.70604545 -19.83179554 801.23406901 -15.61064148 806.3490448 C-9.62002125 812.00236846 -4.13934897 813.22320483 3.89171696 813.09850502 C5.4308327 813.1106872 5.4308327 813.1106872 7.00104168 813.12311548 C10.43792776 813.14300118 13.87317878 813.12015836 17.31002808 813.0974884 C19.79935557 813.10296985 22.28867843 813.11107423 24.7779898 813.12157571 C30.18947015 813.13833971 35.60044891 813.13647096 41.01191521 813.11811066 C49.05880915 813.09088385 57.10541816 813.09805056 65.15233287 813.11202786 C79.52430886 813.13587429 93.89610934 813.12571601 108.26807563 813.10147131 C120.84456306 813.08039988 133.4209907 813.07132021 145.99749565 813.07406235 C146.8316831 813.07423041 147.66587056 813.07439847 148.52533642 813.07457162 C151.91155391 813.07527612 155.29777137 813.07604414 158.68398882 813.07690278 C190.44898964 813.08483287 222.21388473 813.05939688 253.97885529 813.01784965 C282.20287458 812.98110738 310.4267925 812.96948597 338.65083313 812.98039246 C340.46322767 812.98108532 342.27562221 812.98177752 344.08801676 812.98246904 C344.98402862 812.98281103 345.88004048 812.98315302 346.80320421 812.98350537 C351.31357138 812.98521245 355.82393856 812.98686002 360.33430576 812.98844337 C361.22412461 812.98875754 362.11394346 812.9890717 363.03072652 812.98939538 C386.61242678 812.9973743 410.19411727 812.986426 433.77581161 812.96942079 C436.31301702 812.96760671 438.85022244 812.96579541 441.38742786 812.96399033 C443.07055203 812.96278811 444.75367619 812.96157087 446.43680034 812.96033851 C458.17335078 812.95189393 469.90988204 812.95074001 481.64643453 812.9545495 C496.77011677 812.95943391 511.89369626 812.95130412 527.01735038 812.92012949 C535.0164156 812.9040212 543.01530973 812.89883159 551.01438518 812.90941421 C556.98280473 812.91606205 562.95098044 812.90183646 568.91936945 812.87936406 C571.33712031 812.87349351 573.75489876 812.87439548 576.17264266 812.88265021 C579.45306162 812.89283583 582.73249159 812.87852717 586.01284122 812.85799599 C586.95667279 812.86678896 587.90050435 812.87558193 588.87293687 812.88464135 C594.85919069 812.81303589 599.38613393 811.7372936 604.38935852 808.3490448 C608.84705649 803.77403899 610.63837616 799.29667507 610.64235818 792.9474718 C610.64787767 791.86752248 610.65339716 790.78757317 610.6590839 789.67489812 C610.65497327 788.49187392 610.65086263 787.30884973 610.64662743 786.08997631 C610.65188654 784.19309492 610.65188654 784.19309492 610.65725189 782.2578927 C610.66672737 778.73447479 610.66370362 775.21116003 610.65869635 771.68773699 C610.65543566 767.8595074 610.6637073 764.03130014 610.6705147 760.20307761 C610.68083434 753.48912807 610.6836551 746.77520737 610.68160248 740.06125069 C610.67855759 730.07737398 610.68686508 720.0935293 610.69735173 710.10965881 C610.71671469 691.2425895 610.7223208 672.37553104 610.72346584 653.50845297 C610.72438417 638.94103598 610.72849689 624.37362326 610.7348671 609.80620766 C610.73666212 605.61625428 610.73844175 601.42630089 610.74021685 597.2363475 C610.74065895 596.19477688 610.74110104 595.15320627 610.74155654 594.08007291 C610.75386852 564.77430514 610.7617573 535.46853884 610.76086998 506.16276836 C610.76083882 505.05740358 610.76080766 503.95203879 610.76077556 502.8131781 C610.76060934 497.21045362 610.76041126 491.60772914 610.76020615 486.00500467 C610.76016626 484.89224001 610.76012637 483.77947536 610.76008527 482.63299057 C610.76000439 480.38270852 610.7599208 478.13242647 610.75983449 475.88214442 C610.75860875 440.8649911 610.77362483 405.8478765 610.80097961 370.83073425 C610.83168413 331.50915814 610.8489131 292.18760746 610.84705317 252.86601859 C610.8469039 248.67512214 610.84680649 244.48422569 610.84674454 240.29332924 C610.84672123 239.26138772 610.84669792 238.22944619 610.8466739 237.16623371 C610.8466123 220.54172774 610.8593975 203.9172553 610.87660907 187.2927593 C610.89354223 170.592043 610.89555758 153.89137591 610.88239042 137.19065579 C610.87498584 127.26310033 610.87870413 117.33569412 610.8982751 107.40815439 C610.91023887 100.78068982 610.90772434 94.15333382 610.89333411 87.52587432 C610.88554051 83.74713653 610.88410667 79.9686884 610.90024881 76.18997058 C610.91747636 72.12163034 610.90385476 68.05397877 610.88713646 63.98563671 C610.89707282 62.80963601 610.90700918 61.63363532 610.91724664 60.42199823 C610.85421193 53.20768206 610.08815063 47.22490053 604.94208422 41.83248852 C600.90849616 38.30359582 597.40410571 36.10363494 592.0240593 36.08733177 C590.71628985 36.07613353 590.71628985 36.07613353 589.38210082 36.06470907 C588.42879701 36.0666438 587.4754932 36.06857854 586.49330139 36.0705719 C584.96909336 36.0618833 584.96909336 36.0618833 583.41409326 36.05301917 C579.99924094 36.03597432 576.58452342 36.03313878 573.16963196 36.03019714 C570.72571988 36.02090207 568.28181098 36.01073404 565.83790588 35.99975586 C560.57121893 35.97806703 555.30456754 35.96246824 550.03784943 35.95238876 C542.42306331 35.93780504 534.80834492 35.91226909 527.19359854 35.88405748 C514.83927344 35.8385839 502.4849386 35.80197144 490.13056946 35.7709198 C478.12924996 35.74073657 466.12795431 35.70638735 454.12666321 35.66642761 C453.01707719 35.66273529 453.01707719 35.66273529 451.8850753 35.65896837 C448.17410794 35.64659382 444.46314085 35.63413727 440.7521739 35.62163997 C409.96460114 35.5180637 379.17700209 35.42901069 348.38935852 35.3490448 C348.76494465 34.92156435 349.14053078 34.49408389 349.5274983 34.05364949 C352.07920277 31.11814033 354.56604507 28.1789409 356.85027981 25.02912045 C365.40572697 13.29118233 375.46119837 1.05436739 390.3735339 -1.76012975 C403.05904858 -3.48628328 415.9249977 -3.00747768 428.68475461 -2.58878016 C434.65646796 -2.4226018 440.62856381 -2.41711267 446.60223389 -2.39230347 C456.60769411 -2.32927944 466.60704623 -2.16609501 476.6098175 -1.92805481 C490.6952851 -1.59291636 504.77860708 -1.43547063 518.86733544 -1.31569469 C537.76845036 -1.14653897 556.6709523 -0.92363756 575.56827545 -0.5024929 C577.60024318 -0.45877531 579.63231459 -0.41959261 581.66446495 -0.38540268 C600.95583278 -0.05134565 616.64467945 3.05341062 631.17060852 16.9662323 C643.4476946 30.15113108 646.70811209 44.70164912 646.64662743 62.26626873 C646.6501335 63.54128186 646.65363958 64.816295 646.65725189 66.12994489 C646.66666765 69.65933983 646.66372304 73.18863098 646.65869635 76.71803087 C646.65542024 80.56153451 646.66372013 84.40501641 646.6705147 88.24851304 C646.68080946 94.98173597 646.68365941 101.71493015 646.68160248 108.44816017 C646.67855115 118.46099038 646.6868794 128.4737888 646.69735173 138.48661282 C646.71669146 157.41078593 646.72231994 176.3349482 646.72346584 195.25913002 C646.724385 209.87356407 646.72850206 224.48799386 646.7348671 239.10242653 C646.73666219 243.30949236 646.73844182 247.51655821 646.74021685 251.72362405 C646.74088 253.29246672 646.74088 253.29246672 646.74155654 254.89300317 C646.75386457 284.31130127 646.7617577 313.72959789 646.76086998 343.14789867 C646.76083882 344.25698829 646.76080766 345.36607791 646.76077556 346.50877631 C646.76060935 352.13007711 646.76041127 357.75137792 646.76020615 363.37267872 C646.76014631 365.04728822 646.76014631 365.04728822 646.76008527 366.75572821 C646.76000439 369.01337374 646.7599208 371.27101927 646.75983449 373.52866481 C646.75860897 408.65411076 646.77362241 443.7795181 646.80097961 478.904953 C646.8317042 518.37019669 646.84891189 557.835415 646.84705317 597.3006714 C646.84690391 601.50930901 646.8468065 605.71794663 646.84674454 609.92658424 C646.84670957 611.48098874 646.84670957 611.48098874 646.8466739 613.06679534 C646.84661237 629.73892522 646.85938097 646.41102155 646.87660907 663.08314146 C646.89356704 679.84049915 646.89553807 696.5978078 646.88239042 713.35516932 C646.87500247 723.30793986 646.87865465 733.26056138 646.8982751 743.21331612 C646.91028146 749.86634555 646.90767673 756.51926713 646.89333411 763.17229162 C646.88557668 766.95980107 646.88400296 770.74702231 646.90024881 774.53451135 C646.98720842 796.2643399 646.66767029 815.7555906 631.11201477 832.7631073 C619.98854474 843.00376225 606.77289335 848.83343549 591.7135582 848.73215485 C590.66871854 848.73711436 589.62387888 848.74207388 588.54737741 848.74718368 C585.04705019 848.76013466 581.54710475 848.75175639 578.04676819 848.74345398 C575.51151072 848.7483431 572.97625548 848.754533 570.44100404 848.76191187 C564.92916395 848.77490304 559.41743945 848.77856228 553.90558815 848.77395248 C545.70904623 848.7671152 537.51258729 848.77738463 529.3160569 848.79091004 C513.82443316 848.81581632 498.33284391 848.82033922 482.84120336 848.81844407 C470.87737412 848.81707081 458.91355682 848.82088958 446.94972992 848.82836914 C445.23066492 848.82941948 443.51159991 848.83046709 441.7925349 848.831512 C440.5125191 848.83229102 440.5125191 848.83229102 439.2066444 848.83308577 C437.92427987 848.83386599 437.92427987 848.83386599 436.616009 848.83466196 C435.75966311 848.83518595 434.90331723 848.83570994 434.02102147 848.83624982 C409.93588293 848.8508329 385.85074878 848.85911572 361.76560593 848.85449982 C360.85766885 848.85432786 359.94973177 848.85415591 359.01428145 848.85397874 C354.41254459 848.85308986 349.81080774 848.85214505 345.20907089 848.85118073 C344.29515962 848.8509897 343.38124835 848.85079867 342.4396428 848.85060184 C340.5914919 848.85021475 338.743341 848.84982442 336.89519011 848.84943087 C308.14077196 848.84346143 279.3864343 848.85889672 250.6320343 848.89103699 C218.32192745 848.92712107 186.01187163 848.94644562 153.70174336 848.94149828 C150.25591231 848.94102831 146.81008125 848.94061805 143.36425018 848.94024658 C142.51580764 848.9401442 141.6673651 848.94004181 140.79321217 848.93993632 C127.99020292 848.93874194 115.18724885 848.95070291 102.38425446 848.96939087 C87.82107815 848.99063788 73.25801753 848.99446755 58.69483605 848.97509128 C50.54791361 848.96477241 42.4012734 848.96821626 34.25437653 848.99162213 C28.16702312 849.00755841 22.08000802 848.99728249 15.99265566 848.97690111 C13.53308591 848.97270894 11.07348414 848.97693593 8.6139482 848.99049705 C-9.05312847 849.08126316 -21.31956814 847.59571695 -35.61064148 836.3490448 C-36.84620789 835.44025574 -36.84620789 835.44025574 -38.10673523 834.5131073 C-45.91369832 827.76574763 -50.8114611 818.12442085 -53.61064148 808.3490448 C-54.1210062 806.92369515 -54.1210062 806.92369515 -54.64168131 805.46955055 C-56.18501797 800.01057147 -55.88745807 794.41616942 -55.86791039 788.7881403 C-55.87141646 787.51519992 -55.87492253 786.24225954 -55.87853485 784.93074521 C-55.88798666 781.39317063 -55.88499422 777.8556991 -55.87997931 774.31811946 C-55.8767125 770.47094881 -55.8849954 766.62380017 -55.89179766 762.77663654 C-55.90210755 756.03229339 -55.90493974 749.28797895 -55.90288544 742.54362869 C-55.89983796 732.51416131 -55.90815391 722.48472576 -55.91863469 712.45526456 C-55.93798965 693.49943183 -55.9436035 674.54360989 -55.9447488 655.58776844 C-55.94566758 640.94752752 -55.94978262 626.30729085 -55.95615005 611.66705132 C-55.95794513 607.45415702 -55.95972476 603.24126272 -55.96149981 599.02836841 C-55.96194191 597.98104447 -55.962384 596.93372054 -55.9628395 595.85465951 C-55.97515058 566.38885535 -55.98304037 536.92305267 -55.98215294 507.45724583 C-55.98212178 506.34600052 -55.98209062 505.23475521 -55.98205852 504.0898358 C-55.98189231 498.45749393 -55.98169422 492.82515206 -55.98148911 487.19281019 C-55.98144922 486.07419509 -55.98140933 484.95558 -55.98136823 483.80306748 C-55.98128735 481.54095279 -55.98120376 479.27883811 -55.98111744 477.01672342 C-55.97989226 441.8313381 -55.99489798 406.64599135 -56.02226257 371.46061707 C-56.05299029 331.93459072 -56.07019459 292.4085897 -56.06833613 252.88255066 C-56.06818687 248.66682716 -56.06808945 244.45110367 -56.0680275 240.23538017 C-56.06800419 239.19735528 -56.06798088 238.15933039 -56.06795686 237.0898502 C-56.06789534 220.3907878 -56.08066316 203.69175889 -56.09789203 186.99270645 C-56.11485419 170.20471975 -56.11681782 153.41678199 -56.10367338 136.62879146 C-56.09628765 126.65847235 -56.09993088 116.68830203 -56.11955806 106.71799872 C-56.13157046 100.05188923 -56.12895298 93.38588733 -56.11461707 86.71978274 C-56.10686459 82.92557001 -56.10527149 79.13164489 -56.12153177 75.3374526 C-56.21435655 52.1484362 -55.66109663 33.36769545 -39.01689148 15.6693573 C-28.12952893 5.17082912 -14.95181187 0.3759223 0 0 Z " fill="#FCFCFC" transform="translate(704.6106414794922,1056.6509552001953)"/>
<path d="M0 0 C169.13270142 0 169.13270142 0 200 26 C200.80050781 26.66773438 201.60101562 27.33546875 202.42578125 28.0234375 C218.52196306 41.94577988 228.3455209 60.18331281 233.8125 80.5625 C234.10459351 81.63939087 234.10459351 81.63939087 234.40258789 82.73803711 C237.54821688 95.23883043 238.33172252 107.75574324 238.26074219 120.57861328 C238.25003984 122.86648235 238.26070276 125.15356097 238.2734375 127.44140625 C238.28756182 140.96399346 237.43491399 154.54930602 233.75 167.625 C233.53384033 168.41148926 233.31768066 169.19797852 233.0949707 170.00830078 C225.87207159 195.46483576 211.69028975 217.4974665 188.53125 231.1171875 C179.2017822 236.22189062 169.3059161 240.36438867 159 243 C158.15179687 243.24234375 157.30359375 243.4846875 156.4296875 243.734375 C138.17773767 248.71680142 120.07733353 249.43225233 101.246521 249.31672668 C97.41800928 249.29387818 93.58980376 249.28638364 89.76123047 249.28381348 C80.59077736 249.26822511 71.42038409 249.22634202 62.25 249.1875 C41.7075 249.125625 21.165 249.06375 0 249 C0 166.83 0 84.66 0 0 Z " fill="#FE3031" transform="translate(896,211)"/>
<path d="M0 0 C23.63625 -0.04125 47.2725 -0.0825 71.625 -0.125 C79.06756348 -0.14320801 86.51012695 -0.16141602 94.17822266 -0.18017578 C103.3190918 -0.18920898 103.3190918 -0.18920898 107.60848999 -0.19088745 C110.58207225 -0.19273861 113.55558193 -0.20018475 116.52914429 -0.21115112 C120.33840155 -0.22501039 124.14755537 -0.22895657 127.95683551 -0.22614455 C129.99252167 -0.2270053 132.02819677 -0.23765828 134.06385231 -0.2488575 C158.41524392 -0.19461355 179.51048828 6.15804311 197.3359375 23.23828125 C213.21356005 39.79327678 219.40465781 61.12178241 219.375 83.625 C219.37478851 84.28852478 219.37457703 84.95204956 219.37435913 85.63568115 C219.34121569 96.05340377 218.5993651 105.19847159 215 115 C214.61457031 116.07765625 214.22914063 117.1553125 213.83203125 118.265625 C205.81943819 138.90647961 191.77687209 153.37350928 172 163 C158.30481074 168.48132872 144.00809098 169.3104462 129.4140625 169.1953125 C127.51853638 169.19229126 127.51853638 169.19229126 125.5847168 169.18920898 C120.93144014 169.17886278 116.27821584 169.15094175 111.625 169.125 C95.970625 169.063125 95.970625 169.063125 80 169 C80 195.4 80 221.8 80 249 C53.6 249 27.2 249 0 249 C0 166.83 0 84.66 0 0 Z " fill="#FE3031" transform="translate(635,211)"/>
<path d="M0 0 C66.33 0 132.66 0 201 0 C201 19.8 201 39.6 201 60 C161.07 60 121.14 60 80 60 C80 73.86 80 87.72 80 102 C114.32 102 148.64 102 184 102 C184 121.14 184 140.28 184 160 C149.68 160 115.36 160 80 160 C80 189.37 80 218.74 80 249 C53.6 249 27.2 249 0 249 C0 166.83 0 84.66 0 0 Z " fill="#FD3031" transform="translate(1177,211)"/>
<path d="M0 0 C138.93 0 277.86 0 421 0 C421 9.9 421 19.8 421 30 C282.07 30 143.14 30 0 30 C0 20.1 0 10.2 0 0 Z " fill="#F6F6F8" transform="translate(851,1567)"/>
<path d="M0 0 C138.93 0 277.86 0 421 0 C421 9.57 421 19.14 421 29 C282.07 29 143.14 29 0 29 C0 19.43 0 9.86 0 0 Z " fill="#FEFEFE" transform="translate(851,1722)"/>
<path d="M0 0 C138.93 0 277.86 0 421 0 C421 9.57 421 19.14 421 29 C282.07 29 143.14 29 0 29 C0 19.43 0 9.86 0 0 Z " fill="#FDFDFE" transform="translate(851,1413)"/>
<path d="M0 0 C15.84 0 31.68 0 48 0 C49.36125 5.4759375 49.36125 5.4759375 50.75 11.0625 C54.77596655 27.17177164 59.1561831 43.11684288 64 59 C64.16081055 58.32122803 64.32162109 57.64245605 64.48730469 56.94311523 C67.50029439 44.24751135 70.57598491 31.59153936 74 19 C75.65 12.73 77.3 6.46 79 0 C94.51 0 110.02 0 126 0 C126 34.65 126 69.3 126 105 C114.78 105 103.56 105 92 105 C91.97692745 97.54756783 91.957049 90.09526181 91.94506836 82.64282227 C91.94006877 80.11254453 91.93326691 77.58226965 91.92456055 75.05200195 C91.91230196 71.39533787 91.90672779 67.73871228 91.90234375 64.08203125 C91.89718246 62.96794388 91.89202118 61.85385651 91.88670349 60.70600891 C91.88617128 53.09507942 92.31539701 45.57943949 93 38 C92.76925781 39.01835938 92.53851562 40.03671875 92.30078125 41.0859375 C90.03236023 50.97686816 87.45830001 60.74588511 84.69726562 70.50927734 C83.14142755 76.06693144 81.64601816 81.64147202 80.14306641 87.21362305 C79.78994385 88.51553589 79.78994385 88.51553589 79.4296875 89.84375 C79.22585449 90.59849609 79.02202148 91.35324219 78.81201172 92.13085938 C77.59366689 96.4357266 76.28558063 100.71473123 75 105 C66.09 105 57.18 105 48 105 C44.62767475 93.75891583 44.62767475 93.75891583 43.5703125 89.84375 C43.21731079 88.54207886 43.21731079 88.54207886 42.85717773 87.21411133 C42.61555908 86.31845459 42.37394043 85.42279785 42.125 84.5 C40.25390567 77.59702958 38.3651949 70.69987301 36.4375 63.8125 C33.85469903 54.56890157 31.4196741 45.28742997 29 36 C29.1429248 36.75869385 29.28584961 37.5173877 29.43310547 38.29907227 C31.61574865 51.78666339 31.21941875 65.31180476 31.125 78.9375 C31.11494955 81.47069958 31.10582736 84.00390303 31.09765625 86.53710938 C31.07752386 92.69158135 31.03834574 98.84550797 31 105 C20.77 105 10.54 105 0 105 C0 70.35 0 35.7 0 0 Z " fill="#FCFCFC" transform="translate(1111,1181)"/>
<path d="M0 0 C48.64563107 0 48.64563107 0 61 10 C61.62519531 10.48984375 62.25039062 10.9796875 62.89453125 11.484375 C72.43196513 19.87897911 76.25587514 33.94417347 77.16571045 46.23934937 C77.38346827 51.16128058 77.38483871 56.07893679 77.33618164 61.00463867 C77.31249854 63.56265735 77.31565807 66.11963284 77.32226562 68.67773438 C77.29323144 86.80415652 75.8801641 104.26632094 62.46875 117.87890625 C45.0809251 132.81812923 21.44765285 129 0 129 C0 86.43 0 43.86 0 0 Z " fill="#020C44" transform="translate(976,271)"/>
<path d="M0 0 C1.64510941 0.00015915 3.29022379 0.00585551 4.93530273 0.01586914 C6.23164894 0.01799156 6.23164894 0.01799156 7.55418396 0.02015686 C10.32578941 0.025773 13.09731528 0.0383282 15.86889648 0.05102539 C17.74324428 0.05603831 19.61759334 0.06060158 21.49194336 0.06469727 C26.09679192 0.07574767 30.70158069 0.09302309 35.30639648 0.11352539 C38.78453316 8.26186085 41.97439081 16.47466598 44.96655273 24.81274414 C45.60732758 26.58679375 45.60732758 26.58679375 46.26104736 28.39668274 C47.39942994 31.5498806 48.53530427 34.70395799 49.66989517 37.85852051 C50.84328638 41.1193415 52.01958459 44.37911318 53.19580078 47.63891602 C53.66640045 48.94320558 54.13699677 50.24749634 54.60758972 51.55178833 C54.83934591 52.19410526 55.0711021 52.8364222 55.30988121 53.49820328 C56.00693176 55.4305649 56.70355873 57.36307879 57.40010071 59.29562378 C60.03414386 66.60186935 62.68221812 73.9027572 65.35327148 81.19555664 C65.64258041 81.98629074 65.93188934 82.77702484 66.22996521 83.59172058 C67.27687087 86.45236632 68.32386247 89.31295965 69.37722778 92.17123413 C70.06071605 94.02601558 70.74033313 95.88222226 71.41967773 97.73852539 C71.78875244 98.74141602 72.15782715 99.74430664 72.53808594 100.77758789 C73.30639648 103.11352539 73.30639648 103.11352539 73.30639648 105.11352539 C61.42639648 105.11352539 49.54639648 105.11352539 37.30639648 105.11352539 C35.98639648 100.49352539 34.66639648 95.87352539 33.30639648 91.11352539 C14.99139648 90.61852539 14.99139648 90.61852539 -3.69360352 90.11352539 C-4.35360352 93.74352539 -5.01360352 97.37352539 -5.69360352 101.11352539 C-6.35360352 102.43352539 -7.01360352 103.75352539 -7.69360352 105.11352539 C-18.91360352 105.11352539 -30.13360352 105.11352539 -41.69360352 105.11352539 C-39.44365679 94.98876511 -39.44365679 94.98876511 -37.76098633 90.46240234 C-37.38542603 89.44330276 -37.00986572 88.42420319 -36.6229248 87.3742218 C-36.01595764 85.7543763 -36.01595764 85.7543763 -35.39672852 84.10180664 C-34.75785706 82.37519051 -34.75785706 82.37519051 -34.1060791 80.61369324 C-32.96025908 77.52009598 -31.80941377 74.42843014 -30.65611267 71.33761597 C-29.46307396 68.13681281 -28.27629202 64.93369239 -27.08911133 61.73071289 C-25.65811451 57.87103142 -24.22652967 54.01157319 -22.79193115 50.15322876 C-19.91738608 42.42158575 -17.06027141 34.68382357 -14.22485352 26.93774414 C-13.89483337 26.0370369 -13.56481323 25.13632965 -13.22479248 24.20832825 C-11.99977719 20.86472212 -10.77479949 17.52111008 -9.55407715 14.17593384 C-8.74369238 11.95629559 -7.9299919 9.73790122 -7.11547852 7.51977539 C-6.66785156 6.29581055 -6.22022461 5.0718457 -5.7590332 3.81079102 C-4.30603525 0.13234889 -4.30603525 0.13234889 0 0 Z " fill="#FCFCFD" transform="translate(1026.693603515625,1180.886474609375)"/>
<path d="M0 0 C29.7 0 59.4 0 90 0 C90 8.25 90 16.5 90 25 C71.19 25 52.38 25 33 25 C33 29.95 33 34.9 33 40 C49.17 40 65.34 40 82 40 C82 47.92 82 55.84 82 64 C65.83 64 49.66 64 33 64 C33 69.28 33 74.56 33 80 C52.14 80 71.28 80 91 80 C91 88.25 91 96.5 91 105 C60.97 105 30.94 105 0 105 C0 70.35 0 35.7 0 0 Z " fill="#FEFEFE" transform="translate(766,1181)"/>
<path d="M0 0 C34.52980009 -3.88552906 34.52980009 -3.88552906 42.83026123 1.09912109 C49.23651138 6.5683153 52.45830526 14.81832262 55.16015625 22.59155273 C55.77700781 24.92195886 55.77700781 24.92195886 57 26 C57.44915771 25.2479126 57.89831543 24.4958252 58.36108398 23.72094727 C60.02413403 20.93785315 61.68849556 18.15554904 63.35375977 15.3737793 C64.07499252 14.16836686 64.79569764 12.96263857 65.51586914 11.7565918 C66.54956365 10.02570484 67.58529794 8.29603657 68.62109375 6.56640625 C69.2442749 5.52427979 69.86745605 4.48215332 70.50952148 3.40844727 C72 1 72 1 73 0 C75.73894085 -0.08858646 78.4525327 -0.11523479 81.19140625 -0.09765625 C82.01124496 -0.0962413 82.83108368 -0.09482635 83.67576599 -0.09336853 C86.30471382 -0.08775289 88.93357773 -0.07519779 91.5625 -0.0625 C93.34049357 -0.05748701 95.11848846 -0.05292376 96.89648438 -0.04882812 C101.26435545 -0.03777839 105.63216348 -0.02050331 110 0 C108.85612178 3.04472036 107.69361689 5.6991285 105.77734375 8.328125 C105.32915283 8.95114502 104.88096191 9.57416504 104.41918945 10.21606445 C103.93023193 10.88726318 103.44127441 11.55846191 102.9375 12.25 C97.87223863 19.32413334 92.88221113 26.44731083 87.9680481 33.6270752 C87.20006027 34.74722392 86.42978724 35.86580943 85.65719604 36.98278809 C84.56393188 38.5640203 83.47907124 40.15105257 82.39453125 41.73828125 C81.76393799 42.65649658 81.13334473 43.57471191 80.48364258 44.52075195 C78.61542205 47.57469846 78.61542205 47.57469846 78 51 C79.13185423 53.42280166 79.13185423 53.42280166 80.953125 55.875 C81.62674072 56.84759766 82.30035645 57.82019531 82.99438477 58.82226562 C84.11091431 60.39524414 84.11091431 60.39524414 85.25 62 C86.01302697 63.09473589 86.77464134 64.19045757 87.53491211 65.28710938 C89.15679159 67.62462215 90.78438376 69.95800608 92.41552734 72.2890625 C96.42345216 78.02934413 100.35310353 83.82307129 104.2833252 89.61669922 C105.55398241 91.48745975 106.82887715 93.35527382 108.10449219 95.22265625 C108.88358784 96.36710289 109.6625654 97.51162994 110.44140625 98.65625 C111.12920166 99.66494141 111.81699707 100.67363281 112.52563477 101.71289062 C114 104 114 104 114 105 C108.30799972 105.32288804 102.62137771 105.55786199 96.92236328 105.71411133 C94.98749955 105.77925336 93.05327034 105.86780751 91.12060547 105.98071289 C78.36443167 106.70691444 78.36443167 106.70691444 73 105 C68.85096747 101.25344889 67.08590442 97.1134027 65 92 C63.97407793 90.24245481 62.91453491 88.50381657 61.8125 86.79296875 C60.87478575 85.25794336 59.93727979 83.72279071 59 82.1875 C58.51144531 81.38763672 58.02289062 80.58777344 57.51953125 79.76367188 C56.34616104 77.84256574 55.17298256 75.92134284 54 74 C51.00723262 76.63700807 49.24459967 79.73811097 47.2421875 83.1640625 C46.7194072 84.05307755 46.7194072 84.05307755 46.18606567 84.96005249 C45.07804962 86.84587003 43.97624726 88.73522314 42.875 90.625 C41.76555855 92.52127595 40.65483032 94.41678159 39.54251099 96.31137085 C38.53733932 98.02460486 37.5359146 99.74003558 36.53466797 101.45556641 C35 104 35 104 34 105 C31.1883662 105.08861992 28.40141745 105.11522355 25.58984375 105.09765625 C24.74780899 105.0962413 23.90577423 105.09482635 23.03822327 105.09336853 C20.33794665 105.08775263 17.63775172 105.07519748 14.9375 105.0625 C13.11132932 105.05748705 11.28515734 105.05292379 9.45898438 105.04882812 C4.97262458 105.03777804 0.48632616 105.02050279 -4 105 C1.36975948 96.44251854 6.93371724 88.02195418 12.54296875 79.62036133 C13.99912535 77.43881036 15.45280147 75.25562151 16.90625 73.07226562 C17.85413627 71.65102139 18.80205243 70.22979709 19.75 68.80859375 C20.20503906 68.12389008 20.66007813 67.4391864 21.12890625 66.73373413 C24.25869024 62.04397694 27.52262454 57.47671284 30.953125 53.00024414 C32.19985986 51.06609193 32.19985986 51.06609193 31.78613281 48.92382812 C30.523638 45.83424454 28.63145421 43.17412771 26.75 40.4375 C26.31252441 39.79127686 25.87504883 39.14505371 25.42431641 38.47924805 C23.95617429 36.31490261 22.47882996 34.15705519 21 32 C19.90876913 30.40370396 18.81762541 28.80734834 17.7265625 27.2109375 C16.05446836 24.76631977 14.38165182 22.32220556 12.70727539 19.87915039 C0 1.33591297 0 1.33591297 0 0 Z " fill="#FCFCFD" transform="translate(869,1181)"/>
<path d="M0 0 C9.41856366 7.26926933 16.02731976 18.22859662 18 30 C19.23489637 42.84292226 17.60608641 55.24296745 9.75 65.9375 C8.53736957 67.32523009 7.28616065 68.6801295 6 70 C5.319375 70.70769531 4.63875 71.41539063 3.9375 72.14453125 C-5.66612911 81.38802427 -17.57935573 85.43534941 -30.79956055 85.36352539 C-42.81551126 85.05365847 -53.47253543 79.99279171 -62.2890625 71.8984375 C-71.72444436 61.8976395 -75.35651279 50.74786742 -75.375 37.1875 C-75.39949219 36.25357422 -75.42398438 35.31964844 -75.44921875 34.35742188 C-75.49806663 22.62578999 -70.56859031 13.74709053 -63 5 C-44.94524212 -12.87238659 -20.7585194 -12.56563154 0 0 Z " fill="#061048" transform="translate(804,1544)"/>
<path d="M0 0 C1.29067383 -0.0309375 1.29067383 -0.0309375 2.60742188 -0.0625 C14.84689071 -0.1362873 25.64124082 5.27296338 34.65625 13.4375 C44.16598023 23.84437459 48.12062291 35.64985998 47.5625 49.5234375 C46.73277142 61.89157918 41.77084154 73.90652001 32.3125 82.25 C18.19986329 92.45388893 5.39383594 95.19533031 -11.76953125 92.82421875 C-24.73411003 89.41028282 -34.64979177 80.2095147 -41.328125 68.97265625 C-45.11080554 61.39642541 -46.24139303 55.42458655 -46.1875 47 C-46.18250488 45.98091553 -46.17750977 44.96183105 -46.17236328 43.91186523 C-45.99283657 36.1618829 -44.85266097 29.91646135 -40.6875 23.25 C-40.01847656 22.15751953 -40.01847656 22.15751953 -39.3359375 21.04296875 C-29.97563941 7.36856679 -16.29854782 0.09552262 0 0 Z " fill="#050F47" transform="translate(774.6875,1689.75)"/>
<path d="M0 0 C8.83612048 6.84252707 15.42637172 17.15924259 17.125 28.3125 C18.03093539 44.53222782 15.14686616 56.51892614 4.0625 69.0625 C-6.56842629 79.11090978 -19.66345491 80.87780551 -33.58203125 80.6484375 C-44.56455279 80.18027294 -53.17098425 74.93640467 -60.875 67.3125 C-63.56946335 64.15258233 -65.78586784 60.89782761 -67.875 57.3125 C-68.30941406 56.61253906 -68.74382813 55.91257812 -69.19140625 55.19140625 C-72.21843606 49.27445947 -72.25421768 43.26234242 -72.3125 36.75 C-72.32273193 35.8633667 -72.33296387 34.9767334 -72.34350586 34.06323242 C-72.19292588 22.72129567 -67.99036606 12.3998136 -60.1875 4.125 C-55.85348537 0.03538469 -51.1790133 -2.99778709 -45.875 -5.6875 C-45.21371094 -6.02910156 -44.55242188 -6.37070313 -43.87109375 -6.72265625 C-29.270201 -12.86588901 -12.52645068 -8.37929469 0 0 Z " fill="#040E47" transform="translate(800.875,1391.6875)"/>
<path d="M0 0 C6.249375 -0.061875 12.49875 -0.12375 18.9375 -0.1875 C20.89163818 -0.21481201 22.84577637 -0.24212402 24.85913086 -0.27026367 C26.4360289 -0.27903871 28.01293383 -0.28668023 29.58984375 -0.29296875 C30.38588013 -0.30831665 31.1819165 -0.32366455 32.0020752 -0.33947754 C38.85354833 -0.34261898 44.77655903 1.16849945 50.75 4.5625 C57.16826949 11.51562529 58.72352487 18.51695407 58.59350586 27.73217773 C58.24151941 34.79474244 56.32369082 40.34568025 51.5078125 45.640625 C45.5449983 51.0164264 39.94613045 51.28380569 32.32421875 51.1953125 C31.50360962 51.19329834 30.68300049 51.19128418 29.83752441 51.18920898 C26.78745899 51.17878623 23.73747357 51.15086372 20.6875 51.125 C13.860625 51.08375 7.03375 51.0425 0 51 C0 34.17 0 17.34 0 0 Z " fill="#020C44" transform="translate(715,270)"/>
<path d="M0 0 C4.28642324 1.66463038 7.08617217 4.79075837 10.25 8 C10.80429687 8.5465625 11.35859375 9.093125 11.9296875 9.65625 C16 13.7466133 16 13.7466133 16 16 C21.32211779 11.48997648 26.28980729 6.76028821 31.1171875 1.72265625 C33 0 33 0 35 0 C36.7265625 1.75 36.7265625 1.75 38.625 4 C39.25664063 4.7425 39.88828125 5.485 40.5390625 6.25 C41.02117188 6.8275 41.50328125 7.405 42 8 C40.13176354 12.95023163 35.89461743 16.10332482 32.08007812 19.578125 C30.24353261 21.27578552 30.24353261 21.27578552 28 24 C28.27290494 27.31911419 29.60391441 28.96496545 31.94140625 31.234375 C32.52470703 31.80800781 33.10800781 32.38164063 33.70898438 32.97265625 C34.32064453 33.55917969 34.93230469 34.14570312 35.5625 34.75 C36.17802734 35.35199219 36.79355469 35.95398437 37.42773438 36.57421875 C38.94514813 38.05634381 40.47170596 39.5290967 42 41 C40.23770311 44.77519562 38.23124812 47.30729323 35 50 C31.68224042 49.69654638 30.03920573 48.4003819 27.765625 46.05859375 C27.19199219 45.47529297 26.61835937 44.89199219 26.02734375 44.29101562 C25.44082031 43.67935547 24.85429688 43.06769531 24.25 42.4375 C23.64800781 41.82197266 23.04601562 41.20644531 22.42578125 40.57226562 C20.94365619 39.05485187 19.4709033 37.52829404 18 36 C15.16700445 37.27857162 13.22025368 38.56600459 11.125 40.85546875 C10.61453125 41.39494141 10.1040625 41.93441406 9.578125 42.49023438 C8.52018382 43.62804487 7.46813786 44.77136352 6.421875 45.91992188 C4.875 47.54296875 4.875 47.54296875 2 50 C-1.38283655 49.57853968 -2.94672821 48.39781305 -5.25 45.9375 C-5.77078125 45.38964844 -6.2915625 44.84179688 -6.828125 44.27734375 C-7.21484375 43.85582031 -7.6015625 43.43429687 -8 43 C-6.67879172 40.06769807 -5.25361803 38.01335101 -2.9609375 35.765625 C-2.38085938 35.19199219 -1.80078125 34.61835937 -1.203125 34.02734375 C-0.29820312 33.14755859 -0.29820312 33.14755859 0.625 32.25 C1.23601563 31.64800781 1.84703125 31.04601563 2.4765625 30.42578125 C3.97988624 28.94594695 5.48934856 27.47235324 7 26 C2.30233025 20.33870569 -2.74723372 15.14771096 -8 10 C-6.07712966 5.70621187 -3.37521131 3.22846299 0 0 Z " fill="#FAFAFB" transform="translate(758,1711)"/>
<path d="M0 0 C4.95023163 1.86823646 8.10332482 6.10538257 11.578125 9.91992188 C13.27578552 11.75646739 13.27578552 11.75646739 16 14 C19.31911419 13.72709506 20.96496545 12.39608559 23.234375 10.05859375 C23.80800781 9.47529297 24.38164063 8.89199219 24.97265625 8.29101562 C25.55917969 7.67935547 26.14570312 7.06769531 26.75 6.4375 C27.35199219 5.82197266 27.95398438 5.20644531 28.57421875 4.57226562 C30.05634381 3.05485187 31.5290967 1.52829404 33 0 C36.77519562 1.76229689 39.30729323 3.76875188 42 7 C41.69654638 10.31775958 40.4003819 11.96079427 38.05859375 14.234375 C37.47529297 14.80800781 36.89199219 15.38164063 36.29101562 15.97265625 C35.67935547 16.55917969 35.06769531 17.14570312 34.4375 17.75 C33.82197266 18.35199219 33.20644531 18.95398437 32.57226562 19.57421875 C31.05485187 21.05634381 29.52829404 22.5290967 28 24 C29.27857162 26.83299555 30.56600459 28.77974632 32.85546875 30.875 C33.39494141 31.38546875 33.93441406 31.8959375 34.49023438 32.421875 C35.62804487 33.47981618 36.77136352 34.53186214 37.91992188 35.578125 C39.54296875 37.125 39.54296875 37.125 42 40 C41.57853968 43.38283655 40.39781305 44.94672821 37.9375 47.25 C37.11572266 48.03117187 37.11572266 48.03117187 36.27734375 48.828125 C35.85582031 49.21484375 35.43429687 49.6015625 35 50 C32.06769807 48.67879172 30.01335101 47.25361803 27.765625 44.9609375 C27.19199219 44.38085938 26.61835937 43.80078125 26.02734375 43.203125 C25.44082031 42.59984375 24.85429688 41.9965625 24.25 41.375 C23.64800781 40.76398438 23.04601562 40.15296875 22.42578125 39.5234375 C20.94594695 38.02011376 19.47235324 36.51065144 18 35 C12.33870569 39.69766975 7.14771096 44.74723372 2 50 C-2 48 -2 48 -8 41 C-3.05 36.05 1.9 31.1 7 26 C5.35412625 22.7082525 4.4470074 21.20294843 1.9609375 18.765625 C1.38085938 18.19199219 0.80078125 17.61835937 0.203125 17.02734375 C-0.40015625 16.44082031 -1.0034375 15.85429688 -1.625 15.25 C-2.23601563 14.64800781 -2.84703125 14.04601563 -3.4765625 13.42578125 C-4.97988624 11.94594695 -6.48934856 10.47235324 -8 9 C-2.25 2.25 -2.25 2.25 0 0 Z " fill="#FCFCFD" transform="translate(758,1557)"/>
<path d="M0 0 C9.41856366 7.26926933 16.02731976 18.22859662 18 30 C19.23489637 42.84292226 17.60608641 55.24296745 9.75 65.9375 C8.53736957 67.32523009 7.28616065 68.6801295 6 70 C5.319375 70.70769531 4.63875 71.41539063 3.9375 72.14453125 C-5.66612911 81.38802427 -17.57935573 85.43534941 -30.79956055 85.36352539 C-42.81551126 85.05365847 -53.47253543 79.99279171 -62.2890625 71.8984375 C-71.72444436 61.8976395 -75.35651279 50.74786742 -75.375 37.1875 C-75.39949219 36.25357422 -75.42398438 35.31964844 -75.44921875 34.35742188 C-75.49806663 22.62578999 -70.56859031 13.74709053 -63 5 C-44.94524212 -12.87238659 -20.7585194 -12.56563154 0 0 Z M-60.8125 8.6875 C-70.30555477 20.35366369 -72.29634967 32.49096968 -71 47 C-68.53319033 58.68425456 -61.41617057 66.98857453 -52 74 C-50.31971372 74.94739546 -48.61080793 75.84613744 -46.875 76.6875 C-46.02679687 77.10386719 -45.17859375 77.52023437 -44.3046875 77.94921875 C-35.64482989 81.89752671 -22.77905088 81.43180379 -13.875 78.375 C-1.48453193 72.88943674 6.91905978 64.61671672 12 52 C15.33579728 41.94578996 15.41327999 31.31026566 11.26171875 21.4921875 C4.98799576 9.10012785 -3.5989179 0.74025665 -16.8125 -3.8125 C-32.7992473 -8.13658157 -49.4527763 -3.2701039 -60.8125 8.6875 Z " fill="#F1F1F4" transform="translate(804,1544)"/>
<path d="M0 0 C1.29067383 -0.0309375 1.29067383 -0.0309375 2.60742188 -0.0625 C14.84689071 -0.1362873 25.64124082 5.27296338 34.65625 13.4375 C44.16598023 23.84437459 48.12062291 35.64985998 47.5625 49.5234375 C46.73277142 61.89157918 41.77084154 73.90652001 32.3125 82.25 C18.19986329 92.45388893 5.39383594 95.19533031 -11.76953125 92.82421875 C-24.73411003 89.41028282 -34.64979177 80.2095147 -41.328125 68.97265625 C-45.11080554 61.39642541 -46.24139303 55.42458655 -46.1875 47 C-46.18250488 45.98091553 -46.17750977 44.96183105 -46.17236328 43.91186523 C-45.99283657 36.1618829 -44.85266097 29.91646135 -40.6875 23.25 C-40.01847656 22.15751953 -40.01847656 22.15751953 -39.3359375 21.04296875 C-29.97563941 7.36856679 -16.29854782 0.09552262 0 0 Z M-34.08203125 21.03125 C-41.71601307 31.58137572 -42.92468672 42.56271818 -41.6875 55.25 C-38.77679848 67.8064792 -31.44243338 77.33739674 -20.6875 84.25 C-10.26033226 89.75648184 0.47763804 90.93445297 12.0625 88.125 C23.45543214 84.52811247 32.72432279 77.55638017 38.30786133 66.9375 C43.80556766 55.99622386 45.05421499 45.59221217 41.8125 33.625 C37.80901698 21.99382829 30.19926799 13.5310771 19.484375 7.71484375 C-0.13886276 -1.13533509 -20.49127334 4.85918109 -34.08203125 21.03125 Z " fill="#F1F2F5" transform="translate(774.6875,1689.75)"/>
<path d="M0 0 C8.83612048 6.84252707 15.42637172 17.15924259 17.125 28.3125 C18.03093539 44.53222782 15.14686616 56.51892614 4.0625 69.0625 C-6.56842629 79.11090978 -19.66345491 80.87780551 -33.58203125 80.6484375 C-44.56455279 80.18027294 -53.17098425 74.93640467 -60.875 67.3125 C-63.56946335 64.15258233 -65.78586784 60.89782761 -67.875 57.3125 C-68.30941406 56.61253906 -68.74382813 55.91257812 -69.19140625 55.19140625 C-72.21843606 49.27445947 -72.25421768 43.26234242 -72.3125 36.75 C-72.32273193 35.8633667 -72.33296387 34.9767334 -72.34350586 34.06323242 C-72.19292588 22.72129567 -67.99036606 12.3998136 -60.1875 4.125 C-55.85348537 0.03538469 -51.1790133 -2.99778709 -45.875 -5.6875 C-45.21371094 -6.02910156 -44.55242188 -6.37070313 -43.87109375 -6.72265625 C-29.270201 -12.86588901 -12.52645068 -8.37929469 0 0 Z M-61.11328125 12.0078125 C-68.38644612 21.52259581 -68.90797584 32.28486885 -68.20068359 43.89160156 C-66.96436204 53.08152999 -60.80149819 62.26701791 -53.734375 68.0703125 C-53.03828125 68.52148438 -52.3421875 68.97265625 -51.625 69.4375 C-50.93921875 69.89382813 -50.2534375 70.35015625 -49.546875 70.8203125 C-42.22101809 74.91165364 -36.4004844 77.00024123 -27.9375 76.8125 C-26.61818481 76.79328491 -26.61818481 76.79328491 -25.2722168 76.77368164 C-13.43713306 76.40366372 -5.49530621 71.82959431 2.87890625 63.5859375 C11.41102764 54.21984936 13.6976437 43.55965989 13.5 31.1328125 C12.474461 20.68513391 6.92173081 11.5155897 -0.8203125 4.56640625 C-20.94953151 -11.26068556 -44.98651469 -6.81202903 -61.11328125 12.0078125 Z " fill="#EFF0F3" transform="translate(800.875,1391.6875)"/>
<path d="M0 0 C3.40212299 1.61382757 6.10324519 3.58603766 9 6 C8.41226656 9.3485219 7.35567019 11.03677157 5.0078125 13.46875 C4.39043213 14.11642334 3.77305176 14.76409668 3.13696289 15.43139648 C2.14104126 16.45535522 2.14104126 16.45535522 1.125 17.5 C-0.2492309 18.93829303 -1.62292469 20.37709943 -2.99609375 21.81640625 C-3.67655762 22.52555176 -4.35702148 23.23469727 -5.05810547 23.96533203 C-7.72153534 26.75600647 -10.33663179 29.58859514 -12.9375 32.4375 C-13.79859375 33.37980469 -14.6596875 34.32210938 -15.546875 35.29296875 C-19.06012886 39.16985558 -22.54074803 43.07488889 -26 47 C-30.67930582 46.15542099 -32.85866103 43.25811643 -35.875 39.8125 C-36.89193625 38.6720229 -37.91016344 37.53269558 -38.9296875 36.39453125 C-39.42823242 35.82943848 -39.92677734 35.2643457 -40.44042969 34.68212891 C-42.03278546 32.9646381 -43.72087433 31.40769331 -45.4453125 29.82421875 C-46.28835938 28.89222656 -47.13140625 27.96023438 -48 27 C-47.68533548 23.78469361 -46.81465532 22.7745808 -44.6875 20.1875 C-42 18 -42 18 -40.16015625 18.046875 C-37.01692065 19.43376377 -35.12100106 21.59790679 -32.75 24.0625 C-31.85796875 24.98160156 -30.9659375 25.90070313 -30.046875 26.84765625 C-29.37140625 27.55792969 -28.6959375 28.26820312 -28 29 C-23.02845378 24.98045199 -18.78233656 20.66975423 -14.5546875 15.87890625 C-11.55906033 12.50310009 -8.50368048 9.18661983 -5.4375 5.875 C-4.90036377 5.29419678 -4.36322754 4.71339355 -3.80981445 4.11499023 C-2.54043723 2.7428077 -1.27030306 1.37132547 0 0 Z " fill="#F9F9FA" transform="translate(793,1405)"/>
<path d="M0 0 C2 1 2 1 2.82202148 3.06616211 C3.08571533 3.96085205 3.34940918 4.85554199 3.62109375 5.77734375 C3.91693359 6.76669922 4.21277344 7.75605469 4.51757812 8.77539062 C4.82115234 9.81888672 5.12472656 10.86238281 5.4375 11.9375 C5.88706055 13.45053711 5.88706055 13.45053711 6.34570312 14.99414062 C6.94418953 17.01029982 7.53845571 19.02771675 8.12841797 21.04638672 C8.70329076 22.99451306 9.2906063 24.93901664 9.89111328 26.87939453 C10.16552246 27.7661084 10.43993164 28.65282227 10.72265625 29.56640625 C10.96894775 30.35088135 11.21523926 31.13535645 11.46899414 31.94360352 C12 34 12 34 12 37 C4.74 37 -2.52 37 -10 37 C-8.64154946 28.49895953 -6.48035428 20.5106201 -3.875 12.3125 C-3.50246094 11.12205078 -3.12992188 9.93160156 -2.74609375 8.70507812 C-1.83653983 5.80150214 -0.921091 2.89993244 0 0 Z " fill="#0C164D" transform="translate(1041,1211)"/>
<path d="M0 0 C0.33 0 0.66 0 1 0 C0.67 4.95 0.34 9.9 0 15 C-0.99 14.67 -1.98 14.34 -3 14 C-2.28547412 9.23649415 -1.20465156 4.65798604 0 0 Z " fill="#2B3363" transform="translate(1204,1217)"/>
</svg>
